####
#
# OBJ File Generated by Meshlab
#
####
# Object sphere.obj
#
# Vertices: 162
# Faces: 320
#
####
vn 0.000000 0.850651 0.525731
v 0.000000 0.850651 0.525731
vn 0.000000 0.850651 -0.525731
v 0.000000 0.850651 -0.525731
vn 0.000000 -0.850651 0.525731
v 0.000000 -0.850651 0.525731
vn 0.000000 -0.850651 -0.525731
v 0.000000 -0.850651 -0.525731
vn 0.850651 0.525731 0.000000
v 0.850651 0.525731 0.000000
vn 0.850651 -0.525731 0.000000
v 0.850651 -0.525731 0.000000
vn -0.850651 0.525731 0.000000
v -0.850651 0.525731 0.000000
vn -0.850651 -0.525731 0.000000
v -0.850651 -0.525731 0.000000
vn 0.525731 0.000000 0.850651
v 0.525731 0.000000 0.850651
vn -0.525731 0.000000 0.850651
v -0.525731 0.000000 0.850651
vn 0.525731 0.000000 -0.850651
v 0.525731 0.000000 -0.850651
vn -0.525731 0.000000 -0.850651
v -0.525731 0.000000 -0.850651
vn -0.000000 1.000000 0.000000
v 0.000000 1.000000 0.000000
vn 0.500000 0.809017 0.309017
v 0.500000 0.809017 0.309017
vn 0.500000 0.809017 -0.309017
v 0.500000 0.809017 -0.309017
vn -0.500000 0.809017 -0.309017
v -0.500000 0.809017 -0.309017
vn -0.500000 0.809017 0.309017
v -0.500000 0.809017 0.309017
vn -0.000000 -1.000000 0.000000
v 0.000000 -1.000000 0.000000
vn 0.500000 -0.809017 -0.309017
v 0.500000 -0.809017 -0.309017
vn 0.500000 -0.809017 0.309017
v 0.500000 -0.809017 0.309017
vn -0.500000 -0.809017 0.309017
v -0.500000 -0.809017 0.309017
vn -0.500000 -0.809017 -0.309017
v -0.500000 -0.809017 -0.309017
vn 1.000000 0.000000 0.000000
v 1.000000 0.000000 0.000000
vn 0.809017 -0.309017 -0.500000
v 0.809017 -0.309017 -0.500000
vn 0.809017 0.309017 -0.500000
v 0.809017 0.309017 -0.500000
vn 0.809017 0.309017 0.500000
v 0.809017 0.309017 0.500000
vn 0.809017 -0.309017 0.500000
v 0.809017 -0.309017 0.500000
vn -1.000000 0.000000 -0.000000
v -1.000000 0.000000 0.000000
vn -0.809017 -0.309017 0.500000
v -0.809017 -0.309017 0.500000
vn -0.809017 0.309017 0.500000
v -0.809017 0.309017 0.500000
vn -0.809017 0.309017 -0.500000
v -0.809017 0.309017 -0.500000
vn -0.809017 -0.309017 -0.500000
v -0.809017 -0.309017 -0.500000
vn 0.000000 0.000000 1.000000
v 0.000000 0.000000 1.000000
vn -0.309017 -0.500000 0.809017
v -0.309017 -0.500000 0.809017
vn 0.309017 -0.500000 0.809017
v 0.309017 -0.500000 0.809017
vn 0.309017 0.500000 0.809017
v 0.309017 0.500000 0.809017
vn -0.309017 0.500000 0.809017
v -0.309017 0.500000 0.809017
vn 0.000000 -0.000000 -1.000000
v 0.000000 0.000000 -1.000000
vn -0.309017 0.500000 -0.809017
v -0.309017 0.500000 -0.809017
vn 0.309017 0.500000 -0.809017
v 0.309017 0.500000 -0.809017
vn 0.309017 -0.500000 -0.809017
v 0.309017 -0.500000 -0.809017
vn -0.309017 -0.500000 -0.809017
v -0.309017 -0.500000 -0.809017
vn 0.275216 0.950791 0.142312
v 0.262866 0.951057 0.162460
vn 0.505482 0.862837 0.000000
v 0.525731 0.850651 0.000000
vn 0.275216 0.950791 -0.142312
v 0.262866 0.951057 -0.162460
vn -0.275216 0.950791 -0.142312
v -0.262866 0.951057 -0.162460
vn -0.505482 0.862837 0.000000
v -0.525731 0.850651 0.000000
vn -0.275216 0.950791 0.142312
v -0.262866 0.951057 0.162460
vn 0.275216 -0.950791 -0.142312
v 0.262866 -0.951057 -0.162460
vn 0.505482 -0.862837 0.000000
v 0.525731 -0.850651 0.000000
vn 0.275216 -0.950791 0.142312
v 0.262866 -0.951057 0.162460
vn -0.275216 -0.950791 0.142312
v -0.262866 -0.951057 0.162460
vn -0.505482 -0.862837 0.000000
v -0.525731 -0.850651 0.000000
vn -0.275216 -0.950791 -0.142312
v -0.262866 -0.951057 -0.162460
vn 0.950791 -0.142312 -0.275216
v 0.951057 -0.162460 -0.262866
vn 0.862837 0.000000 -0.505482
v 0.850651 0.000000 -0.525731
vn 0.950791 0.142312 -0.275216
v 0.951057 0.162460 -0.262866
vn 0.950791 0.142312 0.275216
v 0.951057 0.162460 0.262866
vn 0.862837 0.000000 0.505482
v 0.850651 0.000000 0.525731
vn 0.950791 -0.142312 0.275216
v 0.951057 -0.162460 0.262866
vn -0.950791 -0.142312 0.275216
v -0.951057 -0.162460 0.262866
vn -0.862837 0.000000 0.505482
v -0.850651 0.000000 0.525731
vn -0.950791 0.142312 0.275216
v -0.951057 0.162460 0.262866
vn -0.950791 0.142312 -0.275216
v -0.951057 0.162460 -0.262866
vn -0.862837 0.000000 -0.505482
v -0.850651 0.000000 -0.525731
vn -0.950791 -0.142312 -0.275216
v -0.951057 -0.162460 -0.262866
vn -0.142312 -0.275216 0.950791
v -0.162460 -0.262866 0.951057
vn 0.000000 -0.505482 0.862837
v 0.000000 -0.525731 0.850651
vn 0.142312 -0.275216 0.950791
v 0.162460 -0.262866 0.951057
vn 0.142312 0.275216 0.950791
v 0.162460 0.262866 0.951057
vn 0.000000 0.505482 0.862837
v 0.000000 0.525731 0.850651
vn -0.142312 0.275216 0.950791
v -0.162460 0.262866 0.951057
vn -0.142312 0.275216 -0.950791
v -0.162460 0.262866 -0.951057
vn 0.000000 0.505482 -0.862837
v 0.000000 0.525731 -0.850651
vn 0.142312 0.275216 -0.950791
v 0.162460 0.262866 -0.951057
vn 0.142312 -0.275216 -0.950791
v 0.162460 -0.262866 -0.951057
vn 0.000000 -0.505482 -0.862837
v 0.000000 -0.525731 -0.850651
vn -0.142312 -0.275216 -0.950791
v -0.162460 -0.262866 -0.951057
vn 0.587621 0.445309 0.675575
v 0.587785 0.425325 0.688191
vn 0.675575 0.587621 0.445309
v 0.688191 0.587785 0.425325
vn 0.445309 0.675575 0.587621
v 0.425325 0.688191 0.587785
vn -0.675575 0.587621 0.445309
v -0.688191 0.587785 0.425325
vn -0.587621 0.445309 0.675575
v -0.587785 0.425325 0.688191
vn -0.445309 0.675575 0.587621
v -0.425325 0.688191 0.587785
vn 0.675575 0.587621 -0.445309
v 0.688191 0.587785 -0.425325
vn 0.587621 0.445309 -0.675575
v 0.587785 0.425325 -0.688191
vn 0.445309 0.675575 -0.587621
v 0.425325 0.688191 -0.587785
vn -0.587621 0.445309 -0.675575
v -0.587785 0.425325 -0.688191
vn -0.675575 0.587621 -0.445309
v -0.688191 0.587785 -0.425325
vn -0.445309 0.675575 -0.587621
v -0.425325 0.688191 -0.587785
vn 0.675575 -0.587621 0.445309
v 0.688191 -0.587785 0.425325
vn 0.587621 -0.445309 0.675575
v 0.587785 -0.425325 0.688191
vn 0.445309 -0.675575 0.587621
v 0.425325 -0.688191 0.587785
vn -0.587621 -0.445309 0.675575
v -0.587785 -0.425325 0.688191
vn -0.675575 -0.587621 0.445309
v -0.688191 -0.587785 0.425325
vn -0.445309 -0.675575 0.587621
v -0.425325 -0.688191 0.587785
vn 0.587621 -0.445309 -0.675575
v 0.587785 -0.425325 -0.688191
vn 0.675575 -0.587621 -0.445309
v 0.688191 -0.587785 -0.425325
vn 0.445309 -0.675575 -0.587621
v 0.425325 -0.688191 -0.587785
vn -0.675575 -0.587621 -0.445309
v -0.688191 -0.587785 -0.425325
vn -0.587621 -0.445309 -0.675575
v -0.587785 -0.425325 -0.688191
vn -0.445309 -0.675575 -0.587621
v -0.425325 -0.688191 -0.587785
vn -0.000000 0.958262 -0.285891
v 0.000000 0.961938 -0.273267
vn 0.247840 0.863595 -0.439065
v 0.259892 0.862668 -0.433889
vn 0.000000 0.958262 0.285891
v 0.000000 0.961938 0.273267
vn 0.247840 0.863595 0.439065
v 0.259892 0.862668 0.433889
vn 0.710422 0.686905 0.153174
v 0.702046 0.693780 0.160622
vn 0.710422 0.686905 -0.153174
v 0.702046 0.693780 -0.160622
vn -0.247840 0.863595 0.439065
v -0.259892 0.862668 0.433889
vn -0.247840 0.863595 -0.439065
v -0.259892 0.862668 -0.433889
vn -0.710422 0.686905 -0.153174
v -0.702046 0.693780 -0.160622
vn -0.710422 0.686905 0.153174
v -0.702046 0.693780 0.160622
vn -0.000000 -0.958262 0.285891
v 0.000000 -0.961938 0.273267
vn 0.247840 -0.863595 0.439065
v 0.259892 -0.862668 0.433889
vn 0.000000 -0.958262 -0.285891
v 0.000000 -0.961938 -0.273267
vn 0.247840 -0.863595 -0.439065
v 0.259892 -0.862668 -0.433889
vn 0.710422 -0.686905 -0.153174
v 0.702046 -0.693780 -0.160622
vn 0.710422 -0.686905 0.153174
v 0.702046 -0.693780 0.160622
vn -0.247840 -0.863595 -0.439065
v -0.259892 -0.862668 -0.433889
vn -0.247840 -0.863595 0.439065
v -0.259892 -0.862668 0.433889
vn -0.710422 -0.686905 0.153174
v -0.702046 -0.693780 0.160622
vn -0.710422 -0.686905 -0.153174
v -0.702046 -0.693780 -0.160622
vn 0.958262 0.285891 0.000000
v 0.961938 0.273267 0.000000
vn 0.863595 0.439065 -0.247840
v 0.862668 0.433889 -0.259892
vn 0.958262 -0.285891 0.000000
v 0.961938 -0.273267 0.000000
vn 0.863595 -0.439065 -0.247840
v 0.862668 -0.433889 -0.259892
vn 0.686905 -0.153174 -0.710422
v 0.693780 -0.160622 -0.702046
vn 0.686905 0.153174 -0.710422
v 0.693780 0.160622 -0.702046
vn 0.863595 -0.439065 0.247840
v 0.862668 -0.433889 0.259892
vn 0.863595 0.439065 0.247840
v 0.862668 0.433889 0.259892
vn 0.686905 0.153174 0.710422
v 0.693780 0.160622 0.702046
vn 0.686905 -0.153174 0.710422
v 0.693780 -0.160622 0.702046
vn -0.958262 0.285891 -0.000000
v -0.961938 0.273267 0.000000
vn -0.863595 0.439065 0.247840
v -0.862668 0.433889 0.259892
vn -0.958262 -0.285891 0.000000
v -0.961938 -0.273267 0.000000
vn -0.863595 -0.439065 0.247840
v -0.862668 -0.433889 0.259892
vn -0.686905 -0.153174 0.710422
v -0.693780 -0.160622 0.702046
vn -0.686905 0.153174 0.710422
v -0.693780 0.160622 0.702046
vn -0.863595 -0.439065 -0.247840
v -0.862668 -0.433889 -0.259892
vn -0.863595 0.439065 -0.247840
v -0.862668 0.433889 -0.259892
vn -0.686905 0.153174 -0.710422
v -0.693780 0.160622 -0.702046
vn -0.686905 -0.153174 -0.710422
v -0.693780 -0.160622 -0.702046
vn 0.285891 0.000000 0.958262
v 0.273267 0.000000 0.961938
vn 0.439065 -0.247840 0.863595
v 0.433889 -0.259892 0.862668
vn -0.285891 0.000000 0.958262
v -0.273267 0.000000 0.961938
vn -0.439065 -0.247840 0.863595
v -0.433889 -0.259892 0.862668
vn -0.153174 -0.710422 0.686905
v -0.160622 -0.702046 0.693780
vn 0.153174 -0.710422 0.686905
v 0.160622 -0.702046 0.693780
vn -0.439065 0.247840 0.863595
v -0.433889 0.259892 0.862668
vn 0.439065 0.247840 0.863595
v 0.433889 0.259892 0.862668
vn 0.153174 0.710422 0.686905
v 0.160622 0.702046 0.693780
vn -0.153174 0.710422 0.686905
v -0.160622 0.702046 0.693780
vn 0.285891 -0.000000 -0.958262
v 0.273267 0.000000 -0.961938
vn 0.439065 0.247840 -0.863595
v 0.433889 0.259892 -0.862668
vn -0.285891 0.000000 -0.958262
v -0.273267 0.000000 -0.961938
vn -0.439065 0.247840 -0.863595
v -0.433889 0.259892 -0.862668
vn -0.153174 0.710422 -0.686905
v -0.160622 0.702046 -0.693780
vn 0.153174 0.710422 -0.686905
v 0.160622 0.702046 -0.693780
vn -0.439065 -0.247840 -0.863595
v -0.433889 -0.259892 -0.862668
vn 0.439065 -0.247840 -0.863595
v 0.433889 -0.259892 -0.862668
vn 0.153174 -0.710422 -0.686905
v 0.160622 -0.702046 -0.693780
vn -0.153174 -0.710422 -0.686905
v -0.160622 -0.702046 -0.693780
# 162 vertices, 0 vertices normals

f 43//43 44//44 45//45
f 46//46 47//47 48//48
f 49//49 50//50 51//51
f 52//52 53//53 54//54
f 55//55 56//56 57//57
f 58//58 59//59 60//60
f 61//61 62//62 63//63
f 64//64 65//65 66//66
f 67//67 68//68 69//69
f 70//70 71//71 72//72
f 73//73 74//74 75//75
f 76//76 77//77 78//78
f 79//79 80//80 81//81
f 82//82 83//83 84//84
f 85//85 86//86 87//87
f 88//88 89//89 90//90
f 91//91 92//92 93//93
f 94//94 95//95 96//96
f 97//97 98//98 99//99
f 100//100 101//101 102//102
f 103//103 45//45 104//104
f 105//105 106//106 43//43
f 44//44 107//107 108//108
f 105//105 48//48 109//109
f 103//103 110//110 46//46
f 47//47 111//111 112//112
f 113//113 51//51 114//114
f 115//115 116//116 49//49
f 50//50 117//117 118//118
f 115//115 54//54 119//119
f 113//113 120//120 52//52
f 53//53 121//121 122//122
f 123//123 57//57 124//124
f 125//125 126//126 55//55
f 56//56 127//127 128//128
f 125//125 60//60 129//129
f 123//123 130//130 58//58
f 59//59 131//131 132//132
f 133//133 63//63 134//134
f 135//135 136//136 61//61
f 62//62 137//137 138//138
f 135//135 66//66 139//139
f 133//133 140//140 64//64
f 65//65 141//141 142//142
f 143//143 69//69 144//144
f 145//145 146//146 67//67
f 68//68 147//147 148//148
f 145//145 72//72 149//149
f 143//143 150//150 70//70
f 71//71 151//151 152//152
f 153//153 75//75 154//154
f 155//155 156//156 73//73
f 74//74 157//157 158//158
f 155//155 78//78 159//159
f 153//153 160//160 76//76
f 77//77 161//161 162//162
f 151//151 81//81 106//106
f 150//150 131//131 79//79
f 80//80 130//130 107//107
f 109//109 84//84 152//152
f 112//112 134//134 82//82
f 83//83 138//138 149//149
f 104//104 87//87 158//158
f 108//108 124//124 85//85
f 86//86 128//128 154//154
f 157//157 90//90 110//110
f 156//156 141//141 88//88
f 89//89 140//140 111//111
f 114//114 93//93 148//148
f 118//118 129//129 91//91
f 92//92 132//132 144//144
f 147//147 96//96 120//120
f 146//146 137//137 94//94
f 95//95 136//136 121//121
f 161//161 99//99 116//116
f 160//160 127//127 97//97
f 98//98 126//126 117//117
f 119//119 102//102 162//162
f 122//122 139//139 100//100
f 101//101 142//142 159//159
f 13//13 43//43 45//45
f 43//43 14//14 44//44
f 45//45 44//44 15//15
f 13//13 46//46 48//48
f 46//46 16//16 47//47
f 48//48 47//47 17//17
f 18//18 49//49 51//51
f 49//49 19//19 50//50
f 51//51 50//50 20//20
f 18//18 52//52 54//54
f 52//52 21//21 53//53
f 54//54 53//53 22//22
f 23//23 55//55 57//57
f 55//55 24//24 56//56
f 57//57 56//56 25//25
f 23//23 58//58 60//60
f 58//58 26//26 59//59
f 60//60 59//59 27//27
f 28//28 61//61 63//63
f 61//61 29//29 62//62
f 63//63 62//62 30//30
f 28//28 64//64 66//66
f 64//64 31//31 65//65
f 66//66 65//65 32//32
f 33//33 67//67 69//69
f 67//67 34//34 68//68
f 69//69 68//68 35//35
f 33//33 70//70 72//72
f 70//70 36//36 71//71
f 72//72 71//71 37//37
f 38//38 73//73 75//75
f 73//73 39//39 74//74
f 75//75 74//74 40//40
f 38//38 76//76 78//78
f 76//76 41//41 77//77
f 78//78 77//77 42//42
f 36//36 79//79 81//81
f 79//79 26//26 80//80
f 81//81 80//80 14//14
f 17//17 82//82 84//84
f 82//82 30//30 83//83
f 84//84 83//83 37//37
f 15//15 85//85 87//87
f 85//85 25//25 86//86
f 87//87 86//86 40//40
f 39//39 88//88 90//90
f 88//88 31//31 89//89
f 90//90 89//89 16//16
f 20//20 91//91 93//93
f 91//91 27//27 92//92
f 93//93 92//92 35//35
f 34//34 94//94 96//96
f 94//94 29//29 95//95
f 96//96 95//95 21//21
f 41//41 97//97 99//99
f 97//97 24//24 98//98
f 99//99 98//98 19//19
f 22//22 100//100 102//102
f 100//100 32//32 101//101
f 102//102 101//101 42//42
f 2//2 103//103 104//104
f 103//103 13//13 45//45
f 104//104 45//45 15//15
f 13//13 105//105 43//43
f 105//105 1//1 106//106
f 43//43 106//106 14//14
f 15//15 44//44 108//108
f 44//44 14//14 107//107
f 108//108 107//107 5//5
f 1//1 105//105 109//109
f 105//105 13//13 48//48
f 109//109 48//48 17//17
f 13//13 103//103 46//46
f 103//103 2//2 110//110
f 46//46 110//110 16//16
f 17//17 47//47 112//112
f 47//47 16//16 111//111
f 112//112 111//111 7//7
f 3//3 113//113 114//114
f 113//113 18//18 51//51
f 114//114 51//51 20//20
f 18//18 115//115 49//49
f 115//115 4//4 116//116
f 49//49 116//116 19//19
f 20//20 50//50 118//118
f 50//50 19//19 117//117
f 118//118 117//117 6//6
f 4//4 115//115 119//119
f 115//115 18//18 54//54
f 119//119 54//54 22//22
f 18//18 113//113 52//52
f 113//113 3//3 120//120
f 52//52 120//120 21//21
f 22//22 53//53 122//122
f 53//53 21//21 121//121
f 122//122 121//121 8//8
f 5//5 123//123 124//124
f 123//123 23//23 57//57
f 124//124 57//57 25//25
f 23//23 125//125 55//55
f 125//125 6//6 126//126
f 55//55 126//126 24//24
f 25//25 56//56 128//128
f 56//56 24//24 127//127
f 128//128 127//127 11//11
f 6//6 125//125 129//129
f 125//125 23//23 60//60
f 129//129 60//60 27//27
f 23//23 123//123 58//58
f 123//123 5//5 130//130
f 58//58 130//130 26//26
f 27//27 59//59 132//132
f 59//59 26//26 131//131
f 132//132 131//131 9//9
f 7//7 133//133 134//134
f 133//133 28//28 63//63
f 134//134 63//63 30//30
f 28//28 135//135 61//61
f 135//135 8//8 136//136
f 61//61 136//136 29//29
f 30//30 62//62 138//138
f 62//62 29//29 137//137
f 138//138 137//137 10//10
f 8//8 135//135 139//139
f 135//135 28//28 66//66
f 139//139 66//66 32//32
f 28//28 133//133 64//64
f 133//133 7//7 140//140
f 64//64 140//140 31//31
f 32//32 65//65 142//142
f 65//65 31//31 141//141
f 142//142 141//141 12//12
f 9//9 143//143 144//144
f 143//143 33//33 69//69
f 144//144 69//69 35//35
f 33//33 145//145 67//67
f 145//145 10//10 146//146
f 67//67 146//146 34//34
f 35//35 68//68 148//148
f 68//68 34//34 147//147
f 148//148 147//147 3//3
f 10//10 145//145 149//149
f 145//145 33//33 72//72
f 149//149 72//72 37//37
f 33//33 143//143 70//70
f 143//143 9//9 150//150
f 70//70 150//150 36//36
f 37//37 71//71 152//152
f 71//71 36//36 151//151
f 152//152 151//151 1//1
f 11//11 153//153 154//154
f 153//153 38//38 75//75
f 154//154 75//75 40//40
f 38//38 155//155 73//73
f 155//155 12//12 156//156
f 73//73 156//156 39//39
f 40//40 74//74 158//158
f 74//74 39//39 157//157
f 158//158 157//157 2//2
f 12//12 155//155 159//159
f 155//155 38//38 78//78
f 159//159 78//78 42//42
f 38//38 153//153 76//76
f 153//153 11//11 160//160
f 76//76 160//160 41//41
f 42//42 77//77 162//162
f 77//77 41//41 161//161
f 162//162 161//161 4//4
f 1//1 151//151 106//106
f 151//151 36//36 81//81
f 106//106 81//81 14//14
f 36//36 150//150 79//79
f 150//150 9//9 131//131
f 79//79 131//131 26//26
f 14//14 80//80 107//107
f 80//80 26//26 130//130
f 107//107 130//130 5//5
f 1//1 109//109 152//152
f 109//109 17//17 84//84
f 152//152 84//84 37//37
f 17//17 112//112 82//82
f 112//112 7//7 134//134
f 82//82 134//134 30//30
f 37//37 83//83 149//149
f 83//83 30//30 138//138
f 149//149 138//138 10//10
f 2//2 104//104 158//158
f 104//104 15//15 87//87
f 158//158 87//87 40//40
f 15//15 108//108 85//85
f 108//108 5//5 124//124
f 85//85 124//124 25//25
f 40//40 86//86 154//154
f 86//86 25//25 128//128
f 154//154 128//128 11//11
f 2//2 157//157 110//110
f 157//157 39//39 90//90
f 110//110 90//90 16//16
f 39//39 156//156 88//88
f 156//156 12//12 141//141
f 88//88 141//141 31//31
f 16//16 89//89 111//111
f 89//89 31//31 140//140
f 111//111 140//140 7//7
f 3//3 114//114 148//148
f 114//114 20//20 93//93
f 148//148 93//93 35//35
f 20//20 118//118 91//91
f 118//118 6//6 129//129
f 91//91 129//129 27//27
f 35//35 92//92 144//144
f 92//92 27//27 132//132
f 144//144 132//132 9//9
f 3//3 147//147 120//120
f 147//147 34//34 96//96
f 120//120 96//96 21//21
f 34//34 146//146 94//94
f 146//146 10//10 137//137
f 94//94 137//137 29//29
f 21//21 95//95 121//121
f 95//95 29//29 136//136
f 121//121 136//136 8//8
f 4//4 161//161 116//116
f 161//161 41//41 99//99
f 116//116 99//99 19//19
f 41//41 160//160 97//97
f 160//160 11//11 127//127
f 97//97 127//127 24//24
f 19//19 98//98 117//117
f 98//98 24//24 126//126
f 117//117 126//126 6//6
f 4//4 119//119 162//162
f 119//119 22//22 102//102
f 162//162 102//102 42//42
f 22//22 122//122 100//100
f 122//122 8//8 139//139
f 100//100 139//139 32//32
f 42//42 101//101 159//159
f 101//101 32//32 142//142
f 159//159 142//142 12//12
# 320 faces, 0 coords texture

# End of File
